<?xml version="1.0" standalone="no"?>
<!DOCTYPE svg PUBLIC "-//W3C//DTD SVG 20010904//EN"
 "http://www.w3.org/TR/2001/REC-SVG-20010904/DTD/svg10.dtd">
<svg version="1.0" xmlns="http://www.w3.org/2000/svg"
 width="320.000000pt" height="320.000000pt" viewBox="0 0 320.000000 320.000000"
 preserveAspectRatio="xMidYMid meet">
<metadata>
Created by potrace 1.11, written by Peter Selinger 2001-2013
</metadata>
<g transform="translate(0.000000,320.000000) scale(0.100000,-0.100000)"
fill="#000000" stroke="none">
<path d="M530 2974 c-341 -66 -514 -252 -514 -554 0 -299 155 -454 535 -535
335 -72 415 -101 487 -179 53 -57 76 -134 70 -225 -15 -207 -173 -312 -467
-312 -176 0 -325 36 -520 127 -52 24 -96 44 -97 44 -2 0 -4 -62 -4 -139 l0
-138 109 -32 c232 -68 285 -76 526 -75 195 0 229 3 300 22 295 82 438 258 438
542 1 234 -87 388 -279 487 -100 52 -162 71 -402 122 -237 51 -293 72 -353
131 -53 51 -69 93 -69 186 0 181 127 292 356 312 171 15 342 -17 529 -99 50
-21 93 -39 98 -39 4 0 7 60 7 133 l0 133 -98 27 c-178 49 -239 58 -437 62
-104 2 -201 1 -215 -1z"/>
<path d="M1530 2830 l0 -110 345 0 345 0 0 -865 0 -865 140 0 140 0 0 865 0
865 345 0 345 0 0 110 0 110 -830 0 -830 0 0 -110z"/>
<path d="M2150 620 c0 -47 -1 -50 -19 -40 -26 13 -87 13 -113 -1 -25 -13 -48
-68 -48 -114 0 -46 23 -101 48 -114 26 -14 87 -14 113 -1 13 7 19 7 19 0 0 -5
9 -10 20 -10 19 0 20 7 20 165 0 158 -1 165 -20 165 -17 0 -20 -7 -20 -50z
m-28 -87 c26 -23 25 -113 -1 -137 -27 -24 -72 -17 -89 14 -15 29 -10 103 8
125 17 20 59 19 82 -2z"/>
<path d="M290 615 c0 -24 -5 -35 -15 -35 -8 0 -15 -7 -15 -15 0 -8 7 -15 15
-15 12 0 15 -17 15 -89 0 -108 9 -121 81 -121 62 0 69 24 9 34 l-40 6 0 85 0
85 40 0 c29 0 40 4 40 15 0 11 -11 15 -40 15 -39 0 -40 1 -40 35 0 31 -3 35
-25 35 -22 0 -25 -4 -25 -35z"/>
<path d="M990 615 c0 -24 -5 -35 -15 -35 -8 0 -15 -7 -15 -15 0 -8 7 -15 15
-15 12 0 15 -17 15 -89 0 -108 9 -121 81 -121 62 0 69 24 9 34 l-40 6 0 85 0
85 40 0 c29 0 40 4 40 15 0 11 -11 15 -40 15 -39 0 -40 1 -40 35 0 31 -3 35
-25 35 -22 0 -25 -4 -25 -35z"/>
<path d="M61 564 c-42 -54 -22 -97 55 -120 107 -31 74 -83 -38 -61 -36 8 -38
7 -38 -18 0 -24 1 -25 73 -25 84 0 117 20 117 68 0 42 -20 61 -74 75 -106 27
-75 87 32 63 30 -7 32 -6 32 18 0 25 -1 26 -69 26 -63 0 -71 -2 -90 -26z"/>
<path d="M460 565 c0 -24 2 -26 38 -19 67 13 95 3 105 -36 5 -18 0 -20 -54
-20 -50 0 -64 -4 -84 -25 -30 -30 -32 -64 -4 -99 17 -21 29 -26 68 -26 26 0
53 6 60 13 11 10 14 10 18 0 3 -7 13 -13 24 -13 17 0 19 8 19 100 0 94 -2 103
-25 125 -21 22 -33 25 -95 25 -68 0 -70 -1 -70 -25z m139 -137 c-5 -18 -9 -34
-9 -34 0 -1 -12 -6 -27 -11 -37 -12 -61 -6 -68 18 -12 36 15 52 92 58 20 1 21
-2 12 -31z"/>
<path d="M1505 580 c-3 -5 -19 -7 -35 -3 l-30 6 0 -122 c0 -114 1 -121 20
-121 18 0 20 7 20 70 0 39 6 86 14 105 13 31 19 35 51 35 45 0 55 -23 55 -131
0 -78 0 -79 25 -79 25 0 25 1 25 78 0 92 -14 148 -40 162 -24 13 -97 13 -105
0z"/>
<path d="M1752 574 c-12 -8 -29 -28 -37 -44 -30 -58 -12 -140 37 -174 15 -11
45 -16 95 -16 72 0 73 1 73 25 0 24 -2 26 -37 19 -21 -3 -40 -6 -43 -6 -50 0
-74 14 -85 50 -6 22 -5 22 84 22 l91 0 0 30 c0 38 -24 86 -49 100 -29 15 -104
12 -129 -6z m112 -40 c9 -8 16 -24 16 -35 0 -17 -7 -19 -65 -19 -36 0 -65 3
-65 6 0 11 23 49 34 56 19 13 64 9 80 -8z"/>
<path d="M2431 569 c-56 -52 -56 -156 0 -208 17 -16 36 -21 74 -21 44 0 55 4
81 31 26 27 29 37 29 94 0 57 -3 67 -29 94 -26 27 -37 31 -81 31 -38 0 -57 -5
-74 -21z m124 -49 c19 -37 19 -73 0 -109 -16 -32 -40 -42 -73 -30 -29 11 -45
54 -39 102 7 50 23 67 63 67 27 0 36 -6 49 -30z"/>
<path d="M2745 580 c-3 -5 -19 -7 -35 -3 l-30 6 0 -122 c0 -114 1 -121 20
-121 18 0 20 7 20 70 0 39 6 86 14 105 13 31 19 35 51 35 45 0 55 -23 55 -131
0 -78 0 -79 25 -79 25 0 25 1 25 78 0 92 -14 148 -40 162 -24 13 -97 13 -105
0z"/>
<path d="M2992 574 c-12 -8 -29 -28 -37 -44 -30 -58 -12 -140 37 -174 15 -11
45 -16 95 -16 72 0 73 1 73 25 0 24 -2 26 -37 19 -21 -3 -40 -6 -43 -6 -50 0
-74 14 -85 50 -6 22 -5 22 84 22 l91 0 0 30 c0 38 -24 86 -49 100 -29 15 -104
12 -129 -6z m112 -40 c9 -8 16 -24 16 -35 0 -17 -7 -19 -65 -19 -36 0 -65 3
-65 6 0 11 23 49 34 56 19 13 64 9 80 -8z"/>
<path d="M703 567 c3 -7 24 -59 47 -115 48 -116 48 -147 0 -165 -44 -17 -38
-37 10 -37 53 0 46 -13 177 318 4 10 -2 13 -22 10 -24 -3 -31 -12 -58 -80 -16
-43 -33 -78 -37 -78 -4 0 -21 35 -37 78 -27 68 -34 77 -58 80 -21 3 -26 0 -22
-11z"/>
<path d="M1150 501 c0 -87 13 -137 40 -151 26 -14 94 -12 108 2 9 9 12 9 12 0
0 -7 11 -12 25 -12 l25 0 0 120 0 120 -25 0 c-25 0 -25 -1 -25 -81 0 -99 -9
-119 -55 -119 -46 0 -55 20 -55 119 0 80 0 81 -25 81 -25 0 -25 -1 -25 -79z"/>
<path d="M2270 365 c0 -21 5 -25 30 -25 25 0 30 4 30 25 0 21 -5 25 -30 25
-25 0 -30 -4 -30 -25z"/>
</g>
</svg>
